<?xml version="1.0" standalone="no"?>
<!DOCTYPE svg PUBLIC "-//W3C//DTD SVG 20010904//EN"
 "http://www.w3.org/TR/2001/REC-SVG-20010904/DTD/svg10.dtd">
<svg version="1.0" xmlns="http://www.w3.org/2000/svg"
 width="512.000000pt" height="512.000000pt" viewBox="0 0 512.000000 512.000000"
 preserveAspectRatio="xMidYMid meet">
<metadata>
Created by potrace 1.11, written by Peter Selinger 2001-2013
</metadata>
<g transform="translate(0.000000,512.000000) scale(0.100000,-0.100000)"
fill="#000000" stroke="none">
<path d="M3705 4648 c-85 -46 -212 -175 -257 -263 -52 -100 -68 -165 -67 -264
1 -98 18 -157 66 -224 128 -182 471 -137 577 75 21 41 26 67 26 123 0 62 -4
78 -32 125 -26 43 -45 60 -89 83 -107 55 -243 47 -341 -20 -28 -18 -55 -36
-60 -39 -4 -3 3 24 16 60 42 117 137 218 245 262 62 25 74 48 47 90 -22 33
-57 31 -131 -8z m108 -409 c53 -14 103 -62 111 -105 16 -81 -45 -193 -127
-236 -58 -30 -145 -31 -184 -2 -36 27 -70 77 -85 125 -10 36 -9 43 18 85 37
60 89 102 156 125 63 22 63 22 111 8z"/>
<path d="M1303 4600 c-12 -5 -29 -20 -39 -35 -49 -74 86 -156 151 -90 29 28
31 45 10 85 -10 20 -27 32 -53 39 -43 12 -40 12 -69 1z"/>
<path d="M2972 4497 c-6 -7 -12 -53 -14 -103 l-3 -89 -63 -5 c-69 -5 -86 -19
-76 -60 11 -47 34 -63 85 -58 l47 5 4 -146 c3 -160 13 -192 71 -235 37 -27
146 -29 195 -3 33 18 53 51 45 75 -9 21 -73 14 -93 -10 -15 -19 -22 -21 -37
-12 -34 21 -43 55 -43 179 0 153 3 161 48 170 138 26 161 85 36 93 l-66 4 6
87 7 86 -29 18 c-35 20 -105 23 -120 4z"/>
<path d="M2006 4328 c-7 -13 -16 -48 -20 -78 -14 -129 -80 -298 -133 -340 -38
-29 -86 -26 -113 8 -21 26 -22 34 -19 207 l4 180 -28 13 c-25 12 -34 12 -65 0
l-37 -14 0 -194 c1 -181 2 -198 23 -237 33 -62 74 -87 152 -91 85 -5 141 23
189 94 l33 49 -6 -105 c-9 -138 -13 -153 -41 -180 -33 -31 -98 -36 -184 -15
-66 16 -73 16 -96 1 -32 -21 -32 -56 -1 -86 21 -19 40 -24 118 -29 127 -9 192
1 237 36 71 57 75 75 83 388 4 154 12 301 16 328 12 63 -4 87 -58 87 -30 0
-43 -5 -54 -22z"/>
<path d="M2274 4339 c-20 -10 -21 -17 -17 -142 7 -269 8 -282 32 -320 46 -75
165 -100 248 -51 25 14 45 24 47 22 1 -1 8 -15 15 -30 17 -33 56 -48 93 -36
36 12 42 36 22 84 -14 31 -17 69 -16 179 1 77 5 166 10 197 8 52 7 60 -13 78
-30 28 -78 36 -98 15 -14 -14 -17 -39 -17 -159 0 -168 -14 -231 -61 -270 -85
-72 -154 9 -143 169 14 216 14 244 -2 259 -17 18 -68 20 -100 5z"/>
<path d="M1289 4324 c-14 -17 -16 -64 -10 -384 3 -239 -6 -281 -66 -306 -36
-16 -57 -13 -145 18 -64 23 -103 19 -111 -12 -13 -51 18 -78 119 -104 122 -31
206 -16 270 48 26 25 46 57 52 81 6 22 12 174 14 339 l2 298 -23 19 c-28 23
-84 25 -102 3z"/>
<path d="M3020 3428 c-126 -13 -839 -103 -1125 -143 -137 -19 -304 -39 -370
-44 -137 -12 -145 -17 -145 -92 0 -39 5 -51 26 -68 15 -12 37 -21 49 -21 l22
0 7 -322 c8 -380 21 -636 41 -843 14 -139 17 -152 41 -173 46 -41 138 -25 156
28 10 30 478 61 1220 81 356 10 451 10 520 -1 93 -14 121 -7 133 31 9 28 -8
60 -46 84 -28 19 -30 23 -25 65 23 180 74 871 67 901 -12 51 -37 84 -89 117
-87 55 -104 57 -402 56 -338 -1 -666 -25 -1369 -100 l-64 -7 5 39 c3 21 2 49
-3 60 -7 21 -2 22 129 43 464 74 970 142 1192 160 69 6 149 14 178 17 l53 6
-3 46 c-3 40 -8 49 -37 69 -37 25 -35 25 -161 11z m312 -489 c27 -7 42 -19 53
-39 14 -27 14 -53 -5 -278 -22 -267 -57 -593 -66 -616 -7 -19 -48 -24 -274
-31 -286 -9 -872 -34 -1110 -49 -118 -7 -218 -10 -222 -7 -21 17 -58 875 -39
894 17 17 715 106 728 93 5 -4 10 -75 11 -157 l4 -149 -34 0 c-18 0 -55 -3
-83 -6 l-50 -6 -34 77 c-41 93 -122 185 -163 185 -28 0 -68 -40 -68 -67 0 -8
23 -36 52 -61 49 -45 108 -117 108 -132 0 -4 -70 -11 -155 -15 -85 -3 -167
-10 -183 -14 -24 -7 -27 -12 -25 -46 2 -21 10 -49 19 -63 14 -22 21 -24 63
-18 102 13 331 35 439 42 l114 7 -4 -23 c-2 -19 -13 -26 -50 -36 -83 -21 -496
-236 -530 -276 -39 -45 -10 -128 45 -128 12 0 47 21 77 46 79 66 249 177 362
234 l96 50 7 -118 c13 -208 28 -252 90 -252 40 0 60 22 76 83 9 36 9 58 1 85
-6 21 -14 70 -18 110 l-7 72 54 -19 c90 -32 288 -119 388 -172 52 -27 105 -49
118 -49 54 0 102 101 56 117 -10 3 -56 21 -103 40 -47 19 -179 69 -295 112
-199 72 -210 78 -213 104 l-3 27 183 2 c101 1 251 3 333 3 l150 0 3 48 c3 43
1 48 -23 57 -15 6 -91 10 -171 10 l-145 0 12 22 c18 34 100 118 131 134 34 18
37 51 8 82 -24 26 -59 28 -100 7 -33 -17 -100 -110 -137 -191 l-24 -54 -78 0
c-43 0 -93 -3 -110 -6 l-31 -6 0 102 c0 57 5 120 11 141 10 32 9 42 -4 62
l-16 25 122 7 c190 12 517 21 572 17 28 -2 67 -8 87 -13z"/>
<path d="M3685 1679 c-53 -9 -233 -17 -825 -35 -555 -16 -1022 -37 -1429 -62
-315 -20 -311 -18 -270 -98 13 -26 36 -56 50 -66 25 -19 30 -19 165 -4 158 18
324 31 324 25 0 -2 -7 -36 -15 -74 -8 -39 -15 -106 -15 -151 0 -68 4 -87 23
-115 31 -47 78 -76 145 -90 74 -16 246 3 657 70 577 96 702 108 746 72 20 -16
22 -26 21 -83 -2 -82 -32 -181 -83 -276 -41 -77 -101 -162 -125 -175 -19 -11
-18 -33 3 -67 38 -65 158 -94 200 -48 95 108 188 311 213 468 30 196 -7 285
-141 337 -34 13 -76 16 -184 16 -158 0 -305 -18 -745 -92 -409 -69 -485 -77
-516 -57 -33 23 -31 68 9 186 l32 95 55 7 c74 8 578 25 1180 39 389 9 516 9
593 -1 87 -11 100 -11 123 4 21 14 25 24 22 54 -3 32 -10 42 -58 73 -67 46
-104 57 -155 48z"/>
</g>
</svg>
